<?xml version="1.0" encoding="UTF-8" standalone="no"?>
<!-- Generator: Adobe Illustrator 16.0.0, SVG Export Plug-In . SVG Version: 6.00 Build 0)  -->

<svg
   xmlns:dc="http://purl.org/dc/elements/1.1/"
   xmlns:cc="http://creativecommons.org/ns#"
   xmlns:rdf="http://www.w3.org/1999/02/22-rdf-syntax-ns#"
   xmlns:svg="http://www.w3.org/2000/svg"
   xmlns="http://www.w3.org/2000/svg"
   xmlns:sodipodi="http://sodipodi.sourceforge.net/DTD/sodipodi-0.dtd"
   xmlns:inkscape="http://www.inkscape.org/namespaces/inkscape"
   version="1.1"
   id="Layer_1"
   x="0px"
   y="0px"
   width="120px"
   height="120px"
   viewBox="0 0 120 120"
   enable-background="new 0 0 120 120"
   xml:space="preserve"
   inkscape:version="0.91 r13725"
   sodipodi:docname="ITC.svg"
   inkscape:export-filename="/home/vitor/Downloads/ITC.svg.png"
   inkscape:export-xdpi="300"
   inkscape:export-ydpi="300"><metadata
     id="metadata75"><rdf:RDF><cc:Work
         rdf:about=""><dc:format>image/svg+xml</dc:format><dc:type
           rdf:resource="http://purl.org/dc/dcmitype/StillImage" /><dc:title /></cc:Work></rdf:RDF></metadata><defs
     id="defs73" /><sodipodi:namedview
     pagecolor="#ffffff"
     bordercolor="#666666"
     borderopacity="1"
     objecttolerance="10"
     gridtolerance="10"
     guidetolerance="10"
     inkscape:pageopacity="0"
     inkscape:pageshadow="2"
     inkscape:window-width="1920"
     inkscape:window-height="1056"
     id="namedview71"
     showgrid="false"
     inkscape:zoom="8.3492284"
     inkscape:cx="46.500933"
     inkscape:cy="45.812617"
     inkscape:window-x="0"
     inkscape:window-y="24"
     inkscape:window-maximized="1"
     inkscape:current-layer="g3" /><g
     id="g3"><rect
       style="fill:#ed314e;fill-opacity:1;stroke:none;stroke-width:0.17716534;stroke-miterlimit:4;stroke-dasharray:none;stroke-opacity:1"
       id="rect4209"
       width="120"
       height="120"
       x="-120"
       y="-120"
       ry="20"
       transform="scale(-1,-1)" /><g
       id="g63"
       style="fill:#ffffff;fill-opacity:1"><path
         fill="#FFE802"
         d="M57.562,27.947c-0.887,0.63-1.726,1.323-2.511,2.072l-0.03,0.028c-0.46,0.44-0.901,0.899-1.323,1.377    l-0.085,0.098c-0.237,0.272-0.469,0.551-0.693,0.835l-0.129,0.161c-0.359,0.463-0.701,0.941-1.024,1.433    c-0.067,0.101-0.133,0.204-0.198,0.307c-0.133,0.209-0.263,0.419-0.389,0.634c-0.079,0.135-0.159,0.271-0.235,0.407    c-0.074,0.132-0.148,0.265-0.22,0.398c-0.118,0.221-0.234,0.443-0.345,0.669c-0.057,0.114-0.111,0.231-0.166,0.347    c-0.083,0.178-0.165,0.355-0.244,0.535c-0.045,0.104-0.092,0.205-0.135,0.309c-0.108,0.255-0.209,0.514-0.308,0.772    c-0.039,0.104-0.078,0.207-0.115,0.312c-0.098,0.271-0.192,0.544-0.28,0.819l-0.067,0.225c-0.076,0.247-0.148,0.495-0.214,0.745    l-0.062,0.228c-0.076,0.297-0.146,0.596-0.209,0.897l-0.05,0.239c-0.062,0.312-0.121,0.627-0.17,0.944l-0.015,0.103    c-0.046,0.304-0.085,0.609-0.118,0.917l-0.021,0.193c-0.033,0.324-0.058,0.649-0.076,0.978l-0.01,0.203    c-0.016,0.341-0.025,0.684-0.025,1.028c0,0.344,0.01,0.687,0.025,1.027l0.01,0.203c0.019,0.327,0.043,0.653,0.076,0.978    l0.021,0.193c0.033,0.308,0.072,0.613,0.118,0.917l0.015,0.103c0.049,0.317,0.107,0.632,0.17,0.944l0.05,0.239    c0.063,0.302,0.133,0.601,0.209,0.897l0.062,0.228c0.065,0.25,0.138,0.498,0.214,0.744l0.067,0.226    c0.088,0.275,0.183,0.549,0.28,0.819c0.037,0.104,0.076,0.208,0.115,0.312c0.099,0.26,0.199,0.518,0.308,0.772    c0.043,0.104,0.09,0.205,0.135,0.309c0.079,0.18,0.161,0.357,0.244,0.535c0.055,0.116,0.109,0.232,0.166,0.348    c0.11,0.225,0.227,0.447,0.345,0.668c0.071,0.134,0.146,0.267,0.22,0.398c0.076,0.137,0.156,0.272,0.235,0.406    c0.126,0.215,0.256,0.426,0.389,0.635c0.065,0.103,0.131,0.205,0.198,0.308c0.323,0.49,0.665,0.969,1.024,1.432l0.129,0.161    c0.225,0.284,0.456,0.562,0.693,0.835l0.085,0.098c0.422,0.478,0.863,0.937,1.323,1.377l0.03,0.029    c0.785,0.748,1.624,1.441,2.511,2.072l0,0V27.947z"
         id="path65"
         style="fill:#ffffff;fill-opacity:1" /><path
         fill="#ED314E"
         d="M71.697,23.78c-4.202,0-8.143,1.165-11.517,3.185v0.982v36.426v0.982c3.375,2.02,7.314,3.184,11.517,3.184    h12.721V23.78H71.697z"
         id="path67"
         style="fill:#ffffff;fill-opacity:1" /><path
         fill="#62C7CE"
         d="M45.85,46.16c0-8.546,4.395-16.085,11.05-20.503c-0.734-1.127-2.001-1.877-3.438-1.877H42.727    c-2.255,0-4.1,1.845-4.1,4.099v36.562c0,2.254,1.845,4.099,4.1,4.099h10.735c1.437,0,2.703-0.75,3.438-1.877    C50.244,62.244,45.85,54.705,45.85,46.16"
         id="path69"
         style="fill:#ffffff;fill-opacity:1" /></g><text
       xml:space="preserve"
       style="font-style:normal;font-variant:normal;font-weight:normal;font-stretch:normal;font-size:15px;line-height:87.99999952%;font-family:'Playtime With Hot Toddies';-inkscape-font-specification:'Playtime With Hot Toddies';text-align:center;letter-spacing:0px;word-spacing:0px;text-anchor:middle;fill:#e5e5e5;fill-opacity:1;stroke:none;stroke-width:1px;stroke-linecap:butt;stroke-linejoin:miter;stroke-opacity:1;"
       x="59.985939"
       y="89.620346"
       id="text4203"
       sodipodi:linespacing="88%"><tspan
         sodipodi:role="line"
         id="tspan4205"
         x="59.985939"
         y="89.620346"
         style="line-height:87.99999952%;fill:#e5e5e5;fill-opacity:1;">plataforma</tspan><tspan
         sodipodi:role="line"
         x="59.985939"
         y="102.82034"
         id="tspan4207"
         style="line-height:87.99999952%;fill:#e5e5e5;fill-opacity:1;">criativa</tspan></text>
</g></svg>