<?xml version="1.0" encoding="utf-8"?>
<!-- Generator: Adobe Illustrator 16.0.0, SVG Export Plug-In . SVG Version: 6.00 Build 0)  -->
<!DOCTYPE svg PUBLIC "-//W3C//DTD SVG 1.1//EN" "http://www.w3.org/Graphics/SVG/1.1/DTD/svg11.dtd">
<svg version="1.1" id="Layer_1" xmlns="http://www.w3.org/2000/svg" xmlns:xlink="http://www.w3.org/1999/xlink" x="0px" y="0px"
	 width="120px" height="120px" viewBox="0 0 120 120" enable-background="new 0 0 120 120" xml:space="preserve">
<g>
	<text transform="matrix(1 0 0 1 22.605 85.2305)"><tspan x="0" y="0" fill="#4F4F4F" font-family="'Raleway-Bold'" font-size="16.7163">hipno</tspan><tspan x="47.274" y="0" fill="#4F4F4F" font-family="'Raleway-Bold'" font-size="16.7163">e</tspan><tspan x="57.688" y="0" fill="#4F4F4F" font-family="'Raleway-Bold'" font-size="16.7163">d</tspan><tspan x="68.887" y="0" fill="#4F4F4F" font-family="'Raleway-Bold'" font-size="16.7163">u</tspan></text>
	<g>
		<path fill="#62C7CE" d="M76.706,31.055c-0.008-1.599-1.32-2.901-2.92-2.896l-7.613,0.032c-1.02,0.004-1.916,0.54-2.434,1.342
			c4.734,3.113,7.873,8.448,7.898,14.509c0,0.297-0.012,0.591-0.025,0.885c-2.062,1.938-4.828,3.133-7.869,3.146
			c-3.561,0.015-6.755-1.594-8.896-4.129l-0.004-0.181c-0.032-7.958,4.032-14.996,10.212-19.136
			c-0.688-1.047-1.871-1.741-3.209-1.735l-9.998,0.041c-2.1,0.009-3.811,1.734-3.802,3.834l0.141,34.049
			c0.009,2.1,1.734,3.811,3.832,3.801l10-0.041c1.338-0.006,2.516-0.709,3.193-1.762c-4.092-2.692-7.276-6.648-8.984-11.308
			l13.783-0.057c-1.357,2.91-3.498,5.389-6.152,7.166c0.523,0.797,1.424,1.326,2.443,1.321l7.613-0.031
			c1.6-0.007,2.902-1.32,2.896-2.919L76.706,31.055z"/>
		<path fill="#FFE802" d="M68.03,39.773c0.012,2.694-2.164,4.888-4.859,4.898c-2.693,0.011-4.887-2.164-4.898-4.858
			s2.164-4.888,4.859-4.898C65.825,34.903,68.019,37.079,68.03,39.773"/>
	</g>
	<text transform="matrix(1 0 0 1 21.7104 97.1074)"><tspan x="0" y="0" fill="#4F4F4F" font-family="'Raleway-Regular'" font-size="10.5577">in</tspan><tspan x="8.984" y="0" fill="#4F4F4F" font-family="'Raleway-Regular'" font-size="10.5577">s</tspan><tspan x="14.379" y="0" fill="#4F4F4F" font-family="'Raleway-Regular'" font-size="10.5577">titu</tspan><tspan x="31.081" y="0" fill="#4F4F4F" font-family="'Raleway-Regular'" font-size="10.5577">t</tspan><tspan x="34.744" y="0" fill="#4F4F4F" font-family="'Raleway-Regular'" font-size="10.5577">o </tspan><tspan x="44.247" y="0" fill="#4F4F4F" font-family="'Raleway-Regular'" font-size="10.5577">cr</tspan><tspan x="54.254" y="0" fill="#4F4F4F" font-family="'Raleway-Regular'" font-size="10.5577">i</tspan><tspan x="56.821" y="0" fill="#4F4F4F" font-family="'Raleway-Regular'" font-size="10.5577">a</tspan><tspan x="62.786" y="0" fill="#4F4F4F" font-family="'Raleway-Regular'" font-size="10.5577">ti</tspan><tspan x="69.151" y="0" fill="#4F4F4F" font-family="'Raleway-Regular'" font-size="10.5577">v</tspan><tspan x="74.852" y="0" fill="#4F4F4F" font-family="'Raleway-Regular'" font-size="10.5577">o</tspan></text>
</g>
</svg>
