<?xml version="1.0" encoding="utf-8"?>
<!-- Generator: Adobe Illustrator 16.0.0, SVG Export Plug-In . SVG Version: 6.00 Build 0)  -->
<!DOCTYPE svg PUBLIC "-//W3C//DTD SVG 1.1//EN" "http://www.w3.org/Graphics/SVG/1.1/DTD/svg11.dtd">
<svg version="1.1" id="Layer_1" xmlns="http://www.w3.org/2000/svg" xmlns:xlink="http://www.w3.org/1999/xlink" x="0px" y="0px"
	 width="350px" height="400px" viewBox="0 0 350 400" enable-background="new 0 0 350 400" xml:space="preserve">
<g>
	<g>
		<text transform="matrix(1 0 0 1 70.1694 31.5039)"><tspan x="0" y="0" fill="#1B1C1C" font-family="'Raleway-Bold'" font-size="22">9/7 a 22</tspan><tspan x="88.659" y="0" fill="#1B1C1C" font-family="'Raleway-Bold'" font-size="22">/</tspan><tspan x="103.376" y="0" fill="#1B1C1C" font-family="'Raleway-Bold'" font-size="22">9</tspan></text>
		<text transform="matrix(1 0 0 1 70.1685 57.9043)"><tspan x="0" y="0" fill="#1B1C1C" font-family="'Raleway-Regular'" font-size="22">P</tspan><tspan x="13.684" y="0" fill="#1B1C1C" font-family="'Raleway-Regular'" font-size="22">r</tspan><tspan x="21.274" y="0" fill="#1B1C1C" font-family="'Raleway-Regular'" font-size="22">a</tspan><tspan x="33.264" y="0" fill="#1B1C1C" font-family="'Raleway-Regular'" font-size="22">z</tspan><tspan x="43.802" y="0" fill="#1B1C1C" font-family="'Raleway-Regular'" font-size="22">o de Inscri</tspan><tspan x="148.299" y="0" fill="#1B1C1C" font-family="'Raleway-Regular'" font-size="22">ç</tspan><tspan x="160.267" y="0" fill="#1B1C1C" font-family="'Raleway-Regular'" font-size="22">ões</tspan></text>
	</g>
	<g>
		<text transform="matrix(1 0 0 1 70.1694 333.1963)"><tspan x="0" y="0" fill="#1B1C1C" font-family="'Raleway-Bold'" font-size="22">29</tspan><tspan x="25.365" y="0" fill="#1B1C1C" font-family="'Raleway-Bold'" font-size="22">/</tspan><tspan x="40.348" y="0" fill="#1B1C1C" font-family="'Raleway-Bold'" font-size="22">11</tspan></text>
		<text transform="matrix(1 0 0 1 70.1694 359.5957)"><tspan x="0" y="0" fill="#1B1C1C" font-family="'Raleway-Regular'" font-size="22">P</tspan><tspan x="13.684" y="0" fill="#1B1C1C" font-family="'Raleway-Regular'" font-size="22">r</tspan><tspan x="20.834" y="0" fill="#1B1C1C" font-family="'Raleway-Regular'" font-size="22">emiação pa</tspan><tspan x="139.083" y="0" fill="#1B1C1C" font-family="'Raleway-Regular'" font-size="22">r</tspan><tspan x="146.651" y="0" fill="#1B1C1C" font-family="'Raleway-Regular'" font-size="22">a c</tspan><tspan x="176.329" y="0" fill="#1B1C1C" font-family="'Raleway-Regular'" font-size="22">a</tspan><tspan x="188.252" y="0" fill="#1B1C1C" font-family="'Raleway-Regular'" font-size="22">t</tspan><tspan x="195.358" y="0" fill="#1B1C1C" font-family="'Raleway-Regular'" font-size="22">egorias</tspan></text>
		<text transform="matrix(1 0 0 1 70.1694 385.9961)"><tspan x="0" y="0" fill="#1B1C1C" font-family="'Raleway-Regular'" font-size="22">+ P</tspan><tspan x="28.424" y="0" fill="#1B1C1C" font-family="'Raleway-Regular'" font-size="22">r</tspan><tspan x="35.573" y="0" fill="#1B1C1C" font-family="'Raleway-Regular'" font-size="22">êmios </tspan><tspan x="102.914" y="0" fill="#1B1C1C" font-family="'Raleway-Regular'" font-size="22">E</tspan><tspan x="116.202" y="0" fill="#1B1C1C" font-family="'Raleway-Regular'" font-size="22">speciais</tspan></text>
	</g>
	<g>
		<text transform="matrix(1 0 0 1 70.1694 182.3511)"><tspan x="0" y="0" fill="#1B1C1C" font-family="'Raleway-Bold'" font-size="22">23</tspan><tspan x="24.684" y="0" fill="#1B1C1C" font-family="'Raleway-Bold'" font-size="22">/</tspan><tspan x="39.688" y="0" fill="#1B1C1C" font-family="'Raleway-Bold'" font-size="22">10</tspan></text>
		<text transform="matrix(1 0 0 1 70.1689 208.752)" fill="#1B1C1C" font-family="'Raleway-Regular'" font-size="22">Divulgação dos </text>
		<text transform="matrix(1 0 0 1 70.1694 235.1504)"><tspan x="0" y="0" fill="#1B1C1C" font-family="'Raleway-Regular'" font-size="22">Finalistas po</tspan><tspan x="126.41" y="0" fill="#1B1C1C" font-family="'Raleway-Regular'" font-size="22">r</tspan><tspan x="133.604" y="0" fill="#1B1C1C" font-family="'Raleway-Regular'" font-size="22"> C</tspan><tspan x="154.305" y="0" fill="#1B1C1C" font-family="'Raleway-Regular'" font-size="22">a</tspan><tspan x="166.229" y="0" fill="#1B1C1C" font-family="'Raleway-Regular'" font-size="22">t</tspan><tspan x="173.334" y="0" fill="#1B1C1C" font-family="'Raleway-Regular'" font-size="22">egoria</tspan></text>
	</g>
	<g>
		<g>
			<path fill="#EC1B50" d="M29.677,164.851c9.665,0,17.5,7.834,17.5,17.5c0,9.664-7.835,17.5-17.5,17.5s-17.5-7.836-17.5-17.5
				C12.177,172.685,20.012,164.851,29.677,164.851"/>
			<path fill="#EC1B50" d="M30.382,315.696c9.665,0,17.5,7.834,17.5,17.5c0,9.664-7.835,17.5-17.5,17.5s-17.5-7.836-17.5-17.5
				C12.882,323.53,20.717,315.696,30.382,315.696"/>
			<path fill="#EC1B50" d="M28.972,14.004c9.665,0,17.5,7.834,17.5,17.5c0,9.664-7.835,17.5-17.5,17.5s-17.5-7.836-17.5-17.5
				C11.472,21.838,19.307,14.004,28.972,14.004"/>
		</g>
		<g>
			<line fill="none" stroke="#EC1B50" stroke-width="2" stroke-miterlimit="10" x1="29.677" y1="333.196" x2="29.677" y2="14.004"/>
		</g>
	</g>
</g>
</svg>
