<?xml version="1.0" encoding="utf-8"?>
<!-- Generator: Adobe Illustrator 16.0.0, SVG Export Plug-In . SVG Version: 6.00 Build 0)  -->
<!DOCTYPE svg PUBLIC "-//W3C//DTD SVG 1.1//EN" "http://www.w3.org/Graphics/SVG/1.1/DTD/svg11.dtd">
<svg version="1.1" id="Layer_1" xmlns="http://www.w3.org/2000/svg" xmlns:xlink="http://www.w3.org/1999/xlink" x="0px" y="0px"
	 width="120px" height="120px" viewBox="0 0 120 120" enable-background="new 0 0 120 120" xml:space="preserve">
<g>
	<g>
		<path fill="#FFE802" d="M62.985,12.709c-0.687,0.501-1.333,1.051-1.938,1.643l-0.023,0.023c-0.355,0.348-0.695,0.711-1.02,1.088
			l-0.065,0.077c-0.183,0.216-0.361,0.436-0.533,0.659l-0.099,0.127c-0.276,0.365-0.538,0.742-0.786,1.129l-0.151,0.241
			c-0.102,0.164-0.201,0.331-0.297,0.499c-0.061,0.106-0.122,0.213-0.18,0.32c-0.057,0.104-0.113,0.208-0.167,0.313
			c-0.091,0.174-0.179,0.349-0.263,0.525c-0.043,0.09-0.084,0.182-0.127,0.272c-0.062,0.14-0.125,0.279-0.185,0.421l-0.103,0.242
			c-0.082,0.2-0.158,0.402-0.232,0.606l-0.087,0.243c-0.074,0.213-0.144,0.427-0.21,0.643l-0.051,0.177
			c-0.057,0.193-0.109,0.388-0.159,0.584l-0.046,0.178c-0.057,0.232-0.108,0.467-0.154,0.703l-0.036,0.188
			c-0.046,0.244-0.088,0.491-0.124,0.739l-0.01,0.08c-0.033,0.237-0.061,0.477-0.083,0.716l-0.015,0.152
			c-0.022,0.253-0.039,0.508-0.049,0.764l-0.006,0.159c-0.009,0.266-0.014,0.533-0.01,0.803c0.003,0.269,0.016,0.536,0.031,0.802
			l0.009,0.159c0.019,0.255,0.04,0.51,0.069,0.762l0.018,0.15c0.029,0.24,0.062,0.479,0.102,0.715l0.013,0.08
			c0.042,0.246,0.091,0.492,0.142,0.736l0.041,0.187c0.053,0.234,0.11,0.467,0.174,0.697l0.049,0.178
			c0.056,0.194,0.113,0.388,0.174,0.58l0.056,0.175c0.072,0.214,0.147,0.426,0.228,0.637l0.092,0.241
			c0.08,0.202,0.162,0.402,0.248,0.601l0.109,0.239c0.064,0.14,0.129,0.278,0.196,0.416l0.133,0.269
			c0.089,0.176,0.181,0.348,0.276,0.52c0.057,0.104,0.115,0.206,0.175,0.309c0.062,0.105,0.125,0.211,0.188,0.315
			c0.101,0.166,0.203,0.329,0.31,0.491l0.157,0.237c0.259,0.38,0.529,0.75,0.815,1.108l0.101,0.124
			c0.179,0.22,0.363,0.435,0.551,0.644l0.068,0.077c0.334,0.368,0.683,0.723,1.045,1.062l0.024,0.022
			c0.621,0.576,1.283,1.109,1.981,1.593h0.001L62.985,12.709z"/>
		<path fill="#FFE802" d="M42.846,23.805c-0.136,0.866-0.207,1.74-0.217,2.614l-0.001,0.032c-0.004,0.515,0.013,1.027,0.052,1.539
			l0.008,0.104c0.023,0.29,0.054,0.58,0.092,0.869l0.021,0.164c0.064,0.469,0.148,0.935,0.25,1.397
			c0.021,0.096,0.043,0.191,0.065,0.287c0.045,0.194,0.095,0.388,0.147,0.58c0.033,0.122,0.066,0.244,0.103,0.366
			c0.034,0.117,0.069,0.233,0.106,0.351c0.061,0.192,0.123,0.383,0.191,0.575c0.034,0.097,0.071,0.193,0.107,0.29
			c0.055,0.148,0.113,0.296,0.172,0.442l0.101,0.252c0.087,0.205,0.179,0.409,0.273,0.611l0.114,0.241
			c0.102,0.209,0.205,0.417,0.315,0.622l0.093,0.166c0.1,0.183,0.202,0.363,0.31,0.543l0.097,0.163
			c0.128,0.211,0.262,0.419,0.4,0.625l0.109,0.163c0.146,0.212,0.295,0.423,0.449,0.63l0.053,0.066
			c0.148,0.196,0.303,0.391,0.461,0.583l0.101,0.121c0.169,0.201,0.342,0.398,0.521,0.593l0.112,0.12
			c0.188,0.2,0.38,0.399,0.579,0.593c0.199,0.194,0.402,0.381,0.607,0.563l0.123,0.108c0.199,0.174,0.4,0.343,0.605,0.507
			l0.124,0.096c0.196,0.154,0.396,0.304,0.595,0.448l0.068,0.049c0.211,0.15,0.425,0.293,0.641,0.433l0.166,0.106
			c0.209,0.133,0.422,0.261,0.635,0.384l0.166,0.093c0.183,0.102,0.365,0.2,0.551,0.296l0.168,0.087
			c0.207,0.104,0.419,0.203,0.63,0.299l0.243,0.109c0.205,0.089,0.412,0.176,0.619,0.257l0.254,0.095
			c0.149,0.056,0.298,0.109,0.447,0.16c0.098,0.034,0.195,0.068,0.293,0.101c0.192,0.062,0.387,0.121,0.58,0.177
			c0.117,0.032,0.235,0.066,0.354,0.098c0.121,0.032,0.244,0.062,0.367,0.093c0.194,0.047,0.39,0.091,0.584,0.132
			c0.097,0.021,0.192,0.04,0.289,0.059c0.466,0.089,0.934,0.161,1.403,0.214l0.165,0.017c0.29,0.03,0.58,0.054,0.871,0.069
			l0.105,0.006c0.512,0.025,1.025,0.029,1.537,0.011l0.035-0.001c0.873-0.032,1.744-0.127,2.607-0.283L42.846,23.805z"/>
		<path fill="#FFE802" d="M32.441,44.808c0.591,0.927,1.249,1.81,1.964,2.641l0.027,0.032c0.421,0.486,0.862,0.956,1.323,1.406
			l0.094,0.091c0.263,0.254,0.531,0.502,0.807,0.743l0.157,0.137c0.449,0.388,0.915,0.757,1.394,1.109
			c0.1,0.072,0.199,0.145,0.299,0.216c0.205,0.146,0.412,0.286,0.621,0.425c0.133,0.087,0.265,0.174,0.398,0.259
			c0.13,0.082,0.26,0.163,0.393,0.242c0.217,0.131,0.436,0.259,0.656,0.383c0.113,0.062,0.229,0.123,0.344,0.185
			c0.174,0.093,0.35,0.185,0.526,0.273c0.103,0.051,0.203,0.104,0.306,0.153c0.252,0.121,0.506,0.237,0.764,0.351
			c0.103,0.044,0.205,0.088,0.308,0.131c0.269,0.113,0.539,0.223,0.813,0.325l0.224,0.08c0.245,0.09,0.492,0.173,0.742,0.254
			l0.226,0.073c0.297,0.092,0.594,0.179,0.896,0.258l0.239,0.062c0.313,0.079,0.627,0.154,0.945,0.221l0.102,0.02
			c0.306,0.062,0.611,0.117,0.921,0.166l0.194,0.031c0.324,0.05,0.652,0.091,0.982,0.126l0.205,0.021
			c0.343,0.033,0.689,0.062,1.037,0.079c0.347,0.018,0.693,0.024,1.039,0.026h0.205c0.332-0.001,0.662-0.01,0.99-0.025l0.197-0.012
			c0.312-0.018,0.622-0.041,0.932-0.072l0.104-0.009c0.322-0.034,0.644-0.077,0.962-0.124l0.245-0.037
			c0.308-0.05,0.612-0.104,0.916-0.166l0.233-0.05c0.256-0.056,0.51-0.114,0.763-0.178l0.231-0.058
			c0.282-0.074,0.562-0.155,0.84-0.24c0.107-0.033,0.215-0.066,0.32-0.101c0.268-0.086,0.533-0.175,0.797-0.271
			c0.106-0.039,0.213-0.081,0.318-0.122c0.186-0.07,0.37-0.144,0.553-0.219c0.119-0.049,0.24-0.098,0.359-0.147
			c0.232-0.102,0.463-0.208,0.691-0.315c0.14-0.065,0.277-0.133,0.414-0.201c0.143-0.071,0.283-0.144,0.424-0.218
			c0.223-0.116,0.442-0.236,0.66-0.359c0.106-0.061,0.213-0.122,0.319-0.185c0.513-0.302,1.013-0.622,1.499-0.963l0.17-0.12
			c0.299-0.212,0.592-0.431,0.878-0.657l0.104-0.081c0.503-0.4,0.989-0.823,1.458-1.266l0.031-0.028
			c0.795-0.755,1.537-1.565,2.221-2.43L32.441,44.808L32.441,44.808z"/>
		<path fill="#FFE802" d="M48.289,67.186c1.123,0.311,2.268,0.537,3.42,0.684l0.045,0.006c0.677,0.084,1.356,0.139,2.039,0.166
			l0.139,0.006c0.387,0.012,0.775,0.016,1.163,0.012l0.22-0.004c0.629-0.014,1.257-0.055,1.884-0.117
			c0.13-0.014,0.261-0.029,0.39-0.043c0.264-0.031,0.526-0.066,0.789-0.107c0.166-0.025,0.332-0.051,0.498-0.08
			c0.16-0.027,0.32-0.057,0.479-0.086c0.265-0.053,0.526-0.105,0.789-0.166c0.134-0.031,0.267-0.064,0.401-0.098
			c0.203-0.051,0.406-0.104,0.608-0.16c0.116-0.031,0.233-0.062,0.349-0.096c0.285-0.084,0.567-0.174,0.85-0.268
			c0.113-0.037,0.225-0.076,0.337-0.115c0.291-0.102,0.581-0.209,0.87-0.322l0.232-0.096c0.256-0.104,0.511-0.213,0.765-0.326
			l0.229-0.104c0.299-0.137,0.594-0.283,0.887-0.434l0.232-0.121c0.303-0.16,0.604-0.324,0.9-0.498l0.095-0.057
			c0.284-0.168,0.563-0.342,0.841-0.523l0.176-0.113c0.291-0.191,0.578-0.393,0.862-0.598l0.177-0.131
			c0.293-0.217,0.584-0.439,0.871-0.674c0.286-0.232,0.563-0.473,0.836-0.717l0.162-0.146c0.26-0.234,0.514-0.477,0.762-0.723
			l0.146-0.15c0.233-0.235,0.461-0.475,0.683-0.718l0.074-0.081c0.23-0.256,0.452-0.518,0.67-0.781l0.165-0.203
			c0.207-0.257,0.409-0.518,0.604-0.781l0.146-0.205c0.163-0.225,0.321-0.452,0.475-0.682l0.141-0.209
			c0.17-0.259,0.332-0.522,0.492-0.786c0.061-0.103,0.121-0.204,0.18-0.307c0.149-0.258,0.295-0.517,0.434-0.778
			c0.057-0.106,0.109-0.215,0.164-0.322c0.097-0.187,0.189-0.375,0.28-0.564c0.06-0.124,0.119-0.248,0.177-0.373
			c0.111-0.244,0.219-0.491,0.321-0.738c0.063-0.15,0.123-0.301,0.183-0.452c0.062-0.157,0.121-0.314,0.179-0.472
			c0.092-0.25,0.18-0.5,0.264-0.752c0.041-0.124,0.082-0.248,0.121-0.372c0.188-0.602,0.354-1.209,0.495-1.822l0.048-0.215
			c0.083-0.379,0.158-0.759,0.224-1.141l0.023-0.138c0.112-0.673,0.195-1.351,0.249-2.03l0.003-0.045
			c0.091-1.158,0.098-2.324,0.021-3.488L48.289,67.186z"/>
		<path fill="#ED314E" d="M76.526,23.567c-0.595,0.065-1.185,0.174-1.763,0.323l-0.022,0.006c-0.339,0.088-0.674,0.191-1.005,0.307
			l-0.066,0.024c-0.188,0.068-0.373,0.14-0.559,0.215l-0.104,0.044c-0.297,0.126-0.59,0.265-0.877,0.413l-0.179,0.095
			c-0.12,0.064-0.237,0.132-0.356,0.2l-0.223,0.133l-0.212,0.133c-0.116,0.074-0.231,0.15-0.345,0.229l-0.173,0.123l-0.261,0.192
			l-0.148,0.111c-0.12,0.094-0.238,0.19-0.355,0.289l-0.139,0.119c-0.12,0.104-0.238,0.209-0.354,0.318l-0.094,0.09
			c-0.102,0.099-0.203,0.199-0.303,0.301l-0.09,0.093c-0.116,0.123-0.23,0.248-0.341,0.376l-0.089,0.102
			c-0.113,0.134-0.227,0.27-0.336,0.408l-0.033,0.046c-0.104,0.134-0.204,0.27-0.303,0.408l-0.062,0.089
			c-0.102,0.146-0.201,0.296-0.298,0.448l-0.06,0.096c-0.099,0.159-0.195,0.321-0.287,0.487c-0.092,0.165-0.18,0.333-0.264,0.501
			l-0.05,0.101c-0.079,0.162-0.155,0.326-0.226,0.489l-0.043,0.1c-0.065,0.156-0.129,0.313-0.188,0.472L66.301,31.5
			c-0.062,0.165-0.117,0.332-0.17,0.5l-0.041,0.129c-0.051,0.161-0.098,0.323-0.141,0.486l-0.031,0.126
			c-0.035,0.139-0.067,0.276-0.098,0.415l-0.027,0.127c-0.031,0.156-0.06,0.312-0.084,0.47l-0.029,0.18
			c-0.022,0.151-0.043,0.302-0.06,0.454l-0.017,0.185c-0.012,0.107-0.02,0.215-0.027,0.322l-0.013,0.212
			c-0.007,0.138-0.011,0.275-0.015,0.413v0.251l0.004,0.259c0.004,0.137,0.009,0.272,0.017,0.409l0.013,0.2
			c0.024,0.324,0.061,0.645,0.109,0.964l0.018,0.112c0.032,0.196,0.068,0.392,0.11,0.587l0.015,0.069
			c0.074,0.343,0.163,0.682,0.267,1.017l0.007,0.022c0.177,0.57,0.395,1.129,0.65,1.669v0.001L76.526,23.567z"/>
	</g>
	<text transform="matrix(1 0 0 1 20.6294 99.8848)"><tspan x="0" y="0" fill="#4F4F4F" font-family="'Raleway-Regular'" font-size="10.8531">i</tspan><tspan x="2.637" y="0" fill="#4F4F4F" font-family="'Raleway-Regular'" font-size="10.8531">n</tspan><tspan x="9.225" y="0" fill="#4F4F4F" font-family="'Raleway-Regular'" font-size="10.8531">stit</tspan><tspan x="25.233" y="0" fill="#4F4F4F" font-family="'Raleway-Regular'" font-size="10.8531">u</tspan><tspan x="31.94" y="0" fill="#4F4F4F" font-family="'Raleway-Regular'" font-size="10.8531">t</tspan><tspan x="35.706" y="0" fill="#4F4F4F" font-family="'Raleway-Regular'" font-size="10.8531">o </tspan><tspan x="45.474" y="0" fill="#4F4F4F" font-family="'Raleway-Regular'" font-size="10.8531">c</tspan><tspan x="51.693" y="0" fill="#4F4F4F" font-family="'Raleway-Regular'" font-size="10.8531">ri</tspan><tspan x="58.41" y="0" fill="#4F4F4F" font-family="'Raleway-Regular'" font-size="10.8531">a</tspan><tspan x="64.542" y="0" fill="#4F4F4F" font-family="'Raleway-Regular'" font-size="10.8531">ti</tspan><tspan x="71.086" y="0" fill="#4F4F4F" font-family="'Raleway-Regular'" font-size="10.8531">v</tspan><tspan x="76.947" y="0" fill="#4F4F4F" font-family="'Raleway-Regular'" font-size="10.8531">o</tspan></text>
	<text transform="matrix(1 0 0 1 16.2988 89.0312)"><tspan x="0" y="0" fill="#4F4F4F" font-family="'Raleway-Bold'" font-size="17.1841">c</tspan><tspan x="10.104" y="0" fill="#4F4F4F" font-family="'Raleway-Bold'" font-size="17.1841">r</tspan><tspan x="16.754" y="0" fill="#4F4F4F" font-family="'Raleway-Bold'" font-size="17.1841">e</tspan><tspan x="27.477" y="0" fill="#4F4F4F" font-family="'Raleway-Bold'" font-size="17.1841">a</tspan><tspan x="37.702" y="0" fill="#4F4F4F" font-family="'Raleway-Bold'" font-size="17.1841">ti</tspan><tspan x="49.541" y="0" fill="#4F4F4F" font-family="'Raleway-Bold'" font-size="17.1841">v</tspan><tspan x="59.096" y="0" fill="#4F4F4F" font-family="'Raleway-Bold'" font-size="17.1841">e</tspan><tspan x="69.801" y="0" fill="#4F4F4F" font-family="'Raleway-Bold'" font-size="17.1841">d</tspan><tspan x="81.314" y="0" fill="#4F4F4F" font-family="'Raleway-Bold'" font-size="17.1841">u</tspan></text>
</g>
</svg>
